<svg width="228" height="40" viewBox="0 0 228 40" fill="none" xmlns="http://www.w3.org/2000/svg">
<rect x="0.00012207" y="6.19189" width="6.22384" height="33.7659" fill="#5038BC"/>
<path d="M19.8385 -1.39074e-09L26.0623 6.19202L-2.31588e-05 6.19202L6.22381 -1.13783e-06L19.8385 -1.39074e-09Z" fill="#5038BC"/>
<path d="M5.34869 21.4785L8.46061 15.2865L26.0624 15.2865L19.8386 21.4785L5.34869 21.4785Z" fill="#5038BC"/>
<mask id="mask0_2109_1934" style="mask-type:alpha" maskUnits="userSpaceOnUse" x="0" y="6" width="7" height="25">
<rect opacity="0.45" x="0.00012207" y="6.19189" width="6.22384" height="24.7681" fill="#B9B9B9"/>
</mask>
<g mask="url(#mask0_2109_1934)">
<ellipse opacity="0.5" cx="5.39607" cy="6.20563" rx="6.88094" ry="3.94001" fill="url(#paint0_radial_2109_1934)"/>
<ellipse opacity="0.5" cx="9.04397" cy="21.4782" rx="6.41833" ry="4.25701" fill="url(#paint1_radial_2109_1934)"/>
</g>
<mask id="mask1_2109_1934" style="mask-type:alpha" maskUnits="userSpaceOnUse" x="6" y="0" width="14" height="7">
<rect opacity="0.45" x="19.839" width="6.19202" height="13.6146" transform="rotate(90 19.839 0)" fill="#5038BC"/>
</mask>
<g mask="url(#mask1_2109_1934)">
<ellipse opacity="0.5" cx="20.131" cy="5.12749" rx="6.09527" ry="3.98714" transform="rotate(90 20.131 5.12749)" fill="#5038BC"/>
</g>
<path d="M19.839 0L26.0628 6.19202V15.2865H19.839V0Z" fill="#5038BC"/>
<mask id="mask2_2109_1934" style="mask-type:alpha" maskUnits="userSpaceOnUse" x="19" y="6" width="8" height="10">
<rect opacity="0.45" x="26.0623" y="15.2866" width="6.22384" height="8.51402" transform="rotate(-180 26.0623 15.2866)" fill="#B9B9B9"/>
</mask>
<g mask="url(#mask2_2109_1934)">
<ellipse opacity="0.5" cx="20.9081" cy="15.8672" rx="6.12659" ry="3.96676" transform="rotate(-180 20.9081 15.8672)" fill="url(#paint2_radial_2109_1934)"/>
</g>
<mask id="mask3_2109_1934" style="mask-type:alpha" maskUnits="userSpaceOnUse" x="8" y="15" width="10" height="7">
<rect opacity="0.45" width="6.19202" height="8.55777" transform="matrix(-4.3936e-08 1 1 4.34879e-08 8.55823 15.2866)" fill="#B9B9B9"/>
</mask>
<g mask="url(#mask3_2109_1934)">
<ellipse opacity="0.7" cx="11.1644" cy="3.97881" rx="11.1644" ry="3.97881" transform="matrix(0.641681 0.766972 0.770196 -0.637807 -0.502838 14.2017)" fill="url(#paint3_radial_2109_1934)"/>
</g>
<path d="M5.34886 21.4786L8.46078 15.2865L26.0139 35.846L21.2974 39.9095L5.34886 21.4786Z" fill="#5038BC"/>
<path d="M41.0713 17L38.6515 12.6079H37.972V17H35.1378V5.36511H39.8945C40.8116 5.36511 41.5906 5.52533 42.2314 5.84576C42.8834 6.16619 43.3695 6.60816 43.69 7.17167C44.0104 7.72413 44.1706 8.34289 44.1706 9.02795C44.1706 9.8014 43.9496 10.492 43.5076 11.0997C43.0767 11.7074 42.4359 12.1383 41.5851 12.3925L44.27 17H41.0713ZM37.972 10.6025H39.7288C40.2481 10.6025 40.6348 10.4754 40.889 10.2213C41.1541 9.96714 41.2867 9.60804 41.2867 9.14397C41.2867 8.70199 41.1541 8.35394 40.889 8.09981C40.6348 7.84568 40.2481 7.71861 39.7288 7.71861H37.972V10.6025ZM48.7838 5.36511V17H45.9497V5.36511H48.7838ZM55.0475 17.116C54.1967 17.116 53.4343 16.9779 52.7603 16.7017C52.0863 16.4254 51.5449 16.0166 51.136 15.4752C50.7383 14.9338 50.5283 14.2819 50.5062 13.5195H53.5227C53.5669 13.9504 53.716 14.2819 53.9702 14.5139C54.2243 14.7349 54.5558 14.8454 54.9646 14.8454C55.3845 14.8454 55.716 14.7515 55.959 14.5636C56.2021 14.3647 56.3237 14.094 56.3237 13.7515C56.3237 13.4642 56.2242 13.2267 56.0253 13.0388C55.8375 12.851 55.5999 12.6963 55.3127 12.5748C55.0364 12.4532 54.6387 12.3151 54.1193 12.1604C53.368 11.9284 52.7548 11.6963 52.2796 11.4643C51.8045 11.2323 51.3957 10.8898 51.0532 10.4367C50.7106 9.98371 50.5394 9.39257 50.5394 8.66332C50.5394 7.58049 50.9316 6.73522 51.7161 6.12751C52.5006 5.50875 53.5227 5.19937 54.7823 5.19937C56.064 5.19937 57.0971 5.50875 57.8816 6.12751C58.6661 6.73522 59.086 7.58602 59.1412 8.6799H56.0751C56.053 8.30422 55.9149 8.01142 55.6607 7.80148C55.4066 7.58049 55.0806 7.47 54.6829 7.47C54.3403 7.47 54.0641 7.56392 53.8542 7.75176C53.6442 7.92854 53.5393 8.1882 53.5393 8.53073C53.5393 8.90641 53.716 9.19921 54.0696 9.40915C54.4232 9.61908 54.9757 9.84559 55.727 10.0887C56.4784 10.3428 57.0861 10.5859 57.5501 10.8179C58.0253 11.05 58.4341 11.387 58.7766 11.8289C59.1191 12.2709 59.2904 12.8399 59.2904 13.5361C59.2904 14.199 59.1191 14.8012 58.7766 15.3426C58.4451 15.884 57.959 16.3149 57.3181 16.6354C56.6773 16.9558 55.9204 17.116 55.0475 17.116ZM69.4044 5.36511V7.63574H66.3216V17H63.4875V7.63574H60.4047V5.36511H69.4044ZM73.6609 7.63574V9.98924H77.4563V12.177H73.6609V14.7294H77.9535V17H70.8268V5.36511H77.9535V7.63574H73.6609ZM86.5391 17L82.6276 11.8621V17H79.7935V5.36511H82.6276V10.4699L86.5059 5.36511H89.8373L85.3292 11.0665L90.003 17H86.5391ZM102.436 5.36511V7.63574H97.6963V10.0887H101.243V12.293H97.6963V17H94.8622V5.36511H102.436ZM111.169 14.9448H106.826L106.13 17H103.164L107.373 5.36511H110.655L114.865 17H111.865L111.169 14.9448ZM110.44 12.7571L108.998 8.49758L107.572 12.7571H110.44ZM120.356 17.116C119.505 17.116 118.743 16.9779 118.069 16.7017C117.395 16.4254 116.853 16.0166 116.444 15.4752C116.047 14.9338 115.837 14.2819 115.815 13.5195H118.831C118.875 13.9504 119.024 14.2819 119.279 14.5139C119.533 14.7349 119.864 14.8454 120.273 14.8454C120.693 14.8454 121.024 14.7515 121.267 14.5636C121.51 14.3647 121.632 14.094 121.632 13.7515C121.632 13.4642 121.533 13.2267 121.334 13.0388C121.146 12.851 120.908 12.6963 120.621 12.5748C120.345 12.4532 119.947 12.3151 119.428 12.1604C118.676 11.9284 118.063 11.6963 117.588 11.4643C117.113 11.2323 116.704 10.8898 116.362 10.4367C116.019 9.98371 115.848 9.39257 115.848 8.66332C115.848 7.58049 116.24 6.73522 117.024 6.12751C117.809 5.50875 118.831 5.19937 120.091 5.19937C121.372 5.19937 122.405 5.50875 123.19 6.12751C123.974 6.73522 124.394 7.58602 124.45 8.6799H121.383C121.361 8.30422 121.223 8.01142 120.969 7.80148C120.715 7.58049 120.389 7.47 119.991 7.47C119.649 7.47 119.372 7.56392 119.162 7.75176C118.953 7.92854 118.848 8.1882 118.848 8.53073C118.848 8.90641 119.024 9.19921 119.378 9.40915C119.732 9.61908 120.284 9.84559 121.035 10.0887C121.787 10.3428 122.394 10.5859 122.858 10.8179C123.334 11.05 123.742 11.387 124.085 11.8289C124.427 12.2709 124.599 12.8399 124.599 13.5361C124.599 14.199 124.427 14.8012 124.085 15.3426C123.753 15.884 123.267 16.3149 122.626 16.6354C121.986 16.9558 121.229 17.116 120.356 17.116ZM129.177 5.36511V17H126.343V5.36511H129.177ZM134.065 14.8122H137.778V17H131.231V5.36511H134.065V14.8122ZM145.875 17L141.964 11.8621V17H139.129V5.36511H141.964V10.4699L145.842 5.36511H149.173L144.665 11.0665L149.339 17H145.875ZM156.188 17.116C155.094 17.116 154.089 16.8619 153.172 16.3536C152.266 15.8454 151.542 15.1382 151.001 14.2322C150.47 13.3151 150.205 12.2875 150.205 11.1494C150.205 10.0113 150.47 8.98928 151.001 8.08323C151.542 7.17719 152.266 6.47004 153.172 5.96177C154.089 5.45351 155.094 5.19937 156.188 5.19937C157.282 5.19937 158.282 5.45351 159.188 5.96177C160.105 6.47004 160.824 7.17719 161.343 8.08323C161.873 8.98928 162.138 10.0113 162.138 11.1494C162.138 12.2875 161.873 13.3151 161.343 14.2322C160.812 15.1382 160.094 15.8454 159.188 16.3536C158.282 16.8619 157.282 17.116 156.188 17.116ZM156.188 14.5305C157.116 14.5305 157.857 14.2211 158.409 13.6023C158.973 12.9836 159.255 12.1659 159.255 11.1494C159.255 10.1218 158.973 9.30418 158.409 8.69647C157.857 8.07771 157.116 7.76833 156.188 7.76833C155.249 7.76833 154.498 8.07219 153.934 8.6799C153.382 9.28761 153.106 10.1108 153.106 11.1494C153.106 12.177 153.382 13.0002 153.934 13.6189C154.498 14.2266 155.249 14.5305 156.188 14.5305ZM176.891 5.36511V17H174.057V10.0224L171.455 17H169.168L166.549 10.0058V17H163.715V5.36511H167.063L170.328 13.42L173.56 5.36511H176.891ZM185.226 5.36511V12.3262C185.226 13.0223 185.397 13.5582 185.74 13.9338C186.082 14.3095 186.585 14.4973 187.248 14.4973C187.911 14.4973 188.419 14.3095 188.773 13.9338C189.127 13.5582 189.303 13.0223 189.303 12.3262V5.36511H192.137V12.3096C192.137 13.3482 191.916 14.2266 191.474 14.9448C191.033 15.663 190.436 16.2045 189.684 16.5691C188.944 16.9337 188.115 17.116 187.198 17.116C186.281 17.116 185.458 16.9392 184.729 16.5857C184.011 16.221 183.442 15.6796 183.022 14.9614C182.602 14.2322 182.392 13.3482 182.392 12.3096V5.36511H185.226ZM196.962 5.36511V17H194.128V5.36511H196.962Z" fill="#5038BC"/>
<path d="M42.5325 27.5697L42.0421 29.8928H43.8231V30.9252H41.8227L41.2678 33.5063H40.145L40.6999 30.9252H37.9897L37.4348 33.5063H36.312L36.8669 30.9252H34.8407V29.8928H37.0863L37.5767 27.5697H35.5764V26.5373H37.7961L38.3511 23.9561H39.4739L38.9189 26.5373H41.6291L42.1841 23.9561H43.3069L42.7519 26.5373H44.5458V27.5697H42.5325ZM41.4097 27.5697H38.6995L38.2091 29.8928H40.9193L41.4097 27.5697ZM50.7901 33.5063L48.8027 29.996H47.9509V33.5063H46.1441V24.4982H49.5254C50.2223 24.4982 50.816 24.6229 51.3064 24.8724C51.7968 25.1134 52.1624 25.4446 52.4034 25.8662C52.6529 26.2792 52.7776 26.7438 52.7776 27.26C52.7776 27.8537 52.6055 28.3914 52.2614 28.8732C51.9172 29.3464 51.4053 29.6734 50.7256 29.854L52.8809 33.5063H50.7901ZM47.9509 28.6409H49.4609C49.9513 28.6409 50.3169 28.5248 50.5578 28.2925C50.7987 28.0515 50.9192 27.7203 50.9192 27.2987C50.9192 26.8857 50.7987 26.5674 50.5578 26.3437C50.3169 26.1114 49.9513 25.9952 49.4609 25.9952H47.9509V28.6409ZM61.0582 29.7766C61.0582 30.0347 61.041 30.267 61.0066 30.4735H55.7798C55.8228 30.9897 56.0035 31.3941 56.3218 31.6866C56.6402 31.9792 57.0317 32.1254 57.4963 32.1254C58.1674 32.1254 58.6449 31.8372 58.9288 31.2608H60.8775C60.6711 31.9491 60.2753 32.5169 59.6902 32.9643C59.1052 33.4031 58.3867 33.6225 57.535 33.6225C56.8467 33.6225 56.2272 33.4719 55.6766 33.1708C55.1345 32.8611 54.7086 32.4266 54.3989 31.8673C54.0978 31.3081 53.9472 30.6628 53.9472 29.9315C53.9472 29.1915 54.0978 28.542 54.3989 27.9827C54.7 27.4235 55.1216 26.9933 55.6636 26.6922C56.2057 26.391 56.8295 26.2405 57.535 26.2405C58.2147 26.2405 58.8212 26.3867 59.3547 26.6792C59.8967 26.9718 60.314 27.3891 60.6065 27.9311C60.9077 28.4645 61.0582 29.0797 61.0582 29.7766ZM59.1869 29.2604C59.1783 28.7958 59.0105 28.4258 58.6836 28.1505C58.3566 27.8666 57.9566 27.7246 57.4833 27.7246C57.036 27.7246 56.6574 27.8623 56.3477 28.1376C56.0465 28.4043 55.8615 28.7786 55.7927 29.2604H59.1869ZM71.2561 26.2534C72.1337 26.2534 72.8392 26.5244 73.3727 27.0664C73.9147 27.5998 74.1857 28.3484 74.1857 29.312V33.5063H72.3789V29.5572C72.3789 28.998 72.237 28.5721 71.953 28.2795C71.6691 27.9784 71.2819 27.8278 70.7915 27.8278C70.3011 27.8278 69.9096 27.9784 69.6171 28.2795C69.3332 28.5721 69.1912 28.998 69.1912 29.5572V33.5063H67.3844V29.5572C67.3844 28.998 67.2425 28.5721 66.9585 28.2795C66.6746 27.9784 66.2874 27.8278 65.797 27.8278C65.298 27.8278 64.9022 27.9784 64.6097 28.2795C64.3258 28.5721 64.1838 28.998 64.1838 29.5572V33.5063H62.377V26.3566H64.1838V27.2213C64.4161 26.9202 64.7129 26.6835 65.0743 26.5115C65.4443 26.3394 65.8486 26.2534 66.2874 26.2534C66.8467 26.2534 67.3457 26.3738 67.7845 26.6147C68.2233 26.847 68.5631 27.1826 68.804 27.6214C69.0364 27.2084 69.3719 26.8771 69.8107 26.6276C70.2581 26.3781 70.7399 26.2534 71.2561 26.2534ZM75.4356 29.9057C75.4356 29.1829 75.5776 28.542 75.8615 27.9827C76.1541 27.4235 76.5455 26.9933 77.036 26.6922C77.535 26.391 78.0899 26.2405 78.7008 26.2405C79.2342 26.2405 79.6988 26.348 80.0946 26.5631C80.499 26.7782 80.8216 27.0492 81.0625 27.3762V26.3566H82.8822V33.5063H81.0625V32.461C80.8302 32.7965 80.5076 33.0762 80.0946 33.2999C79.6902 33.515 79.2213 33.6225 78.6879 33.6225C78.0856 33.6225 77.535 33.4676 77.036 33.1579C76.5455 32.8482 76.1541 32.4137 75.8615 31.8544C75.5776 31.2866 75.4356 30.637 75.4356 29.9057ZM81.0625 29.9315C81.0625 29.4927 80.9765 29.1184 80.8044 28.8087C80.6323 28.4903 80.4 28.2494 80.1075 28.086C79.815 27.9139 79.5009 27.8278 79.1654 27.8278C78.8298 27.8278 78.5201 27.9096 78.2362 28.0731C77.9523 28.2365 77.72 28.4774 77.5393 28.7958C77.3672 29.1055 77.2812 29.4755 77.2812 29.9057C77.2812 30.3359 77.3672 30.7144 77.5393 31.0414C77.72 31.3597 77.9523 31.6049 78.2362 31.777C78.5287 31.9491 78.8384 32.0351 79.1654 32.0351C79.5009 32.0351 79.815 31.9534 80.1075 31.7899C80.4 31.6178 80.6323 31.3769 80.8044 31.0672C80.9765 30.7488 81.0625 30.3703 81.0625 29.9315ZM86.4537 27.4665C86.686 27.0879 86.9871 26.7911 87.3571 26.576C87.7356 26.3609 88.1658 26.2534 88.6476 26.2534V28.1505H88.1701C87.6023 28.1505 87.1721 28.2839 86.8796 28.5506C86.5956 28.8173 86.4537 29.2819 86.4537 29.9444V33.5063H84.6469V26.3566H86.4537V27.4665ZM94.0977 33.5063L91.6714 30.4606V33.5063H89.8646V23.9561H91.6714V29.3894L94.0719 26.3566H96.4207L93.2717 29.9444L96.4465 33.5063H94.0977ZM96.9367 29.9057C96.9367 29.1829 97.0787 28.542 97.3626 27.9827C97.6551 27.4235 98.0466 26.9933 98.537 26.6922C99.036 26.391 99.591 26.2405 100.202 26.2405C100.735 26.2405 101.2 26.348 101.596 26.5631C102 26.7782 102.323 27.0492 102.564 27.3762V26.3566H104.383V33.5063H102.564V32.461C102.331 32.7965 102.009 33.0762 101.596 33.2999C101.191 33.515 100.722 33.6225 100.189 33.6225C99.5867 33.6225 99.036 33.4676 98.537 33.1579C98.0466 32.8482 97.6551 32.4137 97.3626 31.8544C97.0787 31.2866 96.9367 30.637 96.9367 29.9057ZM102.564 29.9315C102.564 29.4927 102.478 29.1184 102.305 28.8087C102.133 28.4903 101.901 28.2494 101.609 28.086C101.316 27.9139 101.002 27.8278 100.666 27.8278C100.331 27.8278 100.021 27.9096 99.7372 28.0731C99.4533 28.2365 99.221 28.4774 99.0403 28.7958C98.8683 29.1055 98.7822 29.4755 98.7822 29.9057C98.7822 30.3359 98.8683 30.7144 99.0403 31.0414C99.221 31.3597 99.4533 31.6049 99.7372 31.777C100.03 31.9491 100.34 32.0351 100.666 32.0351C101.002 32.0351 101.316 31.9534 101.609 31.7899C101.901 31.6178 102.133 31.3769 102.305 31.0672C102.478 30.7488 102.564 30.3703 102.564 29.9315ZM107.955 27.402C108.187 27.0578 108.505 26.7782 108.91 26.5631C109.323 26.348 109.792 26.2405 110.316 26.2405C110.927 26.2405 111.478 26.391 111.968 26.6922C112.467 26.9933 112.859 27.4235 113.143 27.9827C113.435 28.5334 113.582 29.1743 113.582 29.9057C113.582 30.637 113.435 31.2866 113.143 31.8544C112.859 32.4137 112.467 32.8482 111.968 33.1579C111.478 33.4676 110.927 33.6225 110.316 33.6225C109.783 33.6225 109.314 33.5193 108.91 33.3128C108.514 33.0977 108.196 32.8223 107.955 32.4868V33.5063H106.148V23.9561H107.955V27.402ZM111.736 29.9057C111.736 29.4755 111.646 29.1055 111.465 28.7958C111.293 28.4774 111.061 28.2365 110.768 28.0731C110.484 27.9096 110.175 27.8278 109.839 27.8278C109.512 27.8278 109.202 27.9139 108.91 28.086C108.626 28.2494 108.394 28.4903 108.213 28.8087C108.041 29.127 107.955 29.5013 107.955 29.9315C107.955 30.3617 108.041 30.7359 108.213 31.0543C108.394 31.3726 108.626 31.6178 108.91 31.7899C109.202 31.9534 109.512 32.0351 109.839 32.0351C110.175 32.0351 110.484 31.9491 110.768 31.777C111.061 31.6049 111.293 31.3597 111.465 31.0414C111.646 30.723 111.736 30.3445 111.736 29.9057ZM116.701 23.9561V33.5063H114.895V23.9561H116.701ZM125.133 29.7766C125.133 30.0347 125.116 30.267 125.081 30.4735H119.854C119.897 30.9897 120.078 31.3941 120.397 31.6866C120.715 31.9792 121.106 32.1254 121.571 32.1254C122.242 32.1254 122.72 31.8372 123.003 31.2608H124.952C124.746 31.9491 124.35 32.5169 123.765 32.9643C123.18 33.4031 122.461 33.6225 121.61 33.6225C120.921 33.6225 120.302 33.4719 119.751 33.1708C119.209 32.8611 118.783 32.4266 118.474 31.8673C118.172 31.3081 118.022 30.6628 118.022 29.9315C118.022 29.1915 118.172 28.542 118.474 27.9827C118.775 27.4235 119.196 26.9933 119.738 26.6922C120.28 26.391 120.904 26.2405 121.61 26.2405C122.289 26.2405 122.896 26.3867 123.429 26.6792C123.971 26.9718 124.389 27.3891 124.681 27.9311C124.982 28.4645 125.133 29.0797 125.133 29.7766ZM123.262 29.2604C123.253 28.7958 123.085 28.4258 122.758 28.1505C122.431 27.8666 122.031 27.7246 121.558 27.7246C121.111 27.7246 120.732 27.8623 120.422 28.1376C120.121 28.4043 119.936 28.7786 119.867 29.2604H123.262ZM127.729 25.4661V28.4731H131.007V29.4411H127.729V32.5384H131.395V33.5063H126.555V24.4982H131.395V25.4661H127.729ZM135.675 33.6225C135.133 33.6225 134.647 33.5322 134.217 33.3515C133.787 33.1622 133.447 32.9041 133.197 32.5771C132.948 32.2416 132.81 31.8587 132.784 31.4285H133.998C134.032 31.7813 134.195 32.0695 134.488 32.2932C134.789 32.5169 135.181 32.6288 135.662 32.6288C136.11 32.6288 136.463 32.5298 136.721 32.3319C136.979 32.134 137.108 31.8845 137.108 31.5834C137.108 31.2737 136.97 31.0457 136.695 30.8994C136.42 30.7445 135.994 30.594 135.417 30.4477C134.892 30.31 134.462 30.1724 134.127 30.0347C133.8 29.8885 133.516 29.6777 133.275 29.4023C133.043 29.1184 132.926 28.7485 132.926 28.2925C132.926 27.9311 133.034 27.5998 133.249 27.2987C133.464 26.9976 133.77 26.761 134.165 26.5889C134.561 26.4082 135.013 26.3179 135.52 26.3179C136.303 26.3179 136.936 26.5158 137.418 26.9115C137.899 27.3073 138.158 27.8494 138.192 28.5377H137.018C136.992 28.1677 136.841 27.8709 136.566 27.6472C136.299 27.4235 135.938 27.3116 135.482 27.3116C135.06 27.3116 134.725 27.402 134.475 27.5826C134.226 27.7633 134.101 27.9999 134.101 28.2925C134.101 28.5248 134.174 28.7183 134.32 28.8732C134.475 29.0195 134.664 29.1399 134.888 29.2346C135.12 29.3206 135.439 29.4195 135.843 29.5314C136.351 29.6691 136.764 29.8067 137.082 29.9444C137.4 30.0734 137.671 30.2713 137.895 30.538C138.127 30.8048 138.248 31.1532 138.256 31.5834C138.256 31.9706 138.149 32.319 137.934 32.6288C137.719 32.9385 137.413 33.1837 137.018 33.3644C136.63 33.5365 136.183 33.6225 135.675 33.6225ZM139.476 29.9573C139.476 29.226 139.622 28.5893 139.914 28.0472C140.207 27.4966 140.611 27.0707 141.127 26.7696C141.652 26.4685 142.25 26.3179 142.921 26.3179C143.79 26.3179 144.504 26.5287 145.064 26.9503C145.632 27.3718 146.006 27.9569 146.186 28.7054H144.922C144.801 28.2752 144.565 27.9354 144.212 27.6859C143.868 27.4364 143.438 27.3116 142.921 27.3116C142.25 27.3116 141.708 27.5439 141.295 28.0085C140.882 28.4645 140.676 29.1141 140.676 29.9573C140.676 30.8091 140.882 31.4673 141.295 31.9319C141.708 32.3965 142.25 32.6288 142.921 32.6288C143.438 32.6288 143.868 32.5083 144.212 32.2674C144.556 32.0265 144.793 31.6823 144.922 31.2349H146.186C145.997 31.9577 145.619 32.5384 145.051 32.9772C144.483 33.4074 143.773 33.6225 142.921 33.6225C142.25 33.6225 141.652 33.4719 141.127 33.1708C140.611 32.8697 140.207 32.4438 139.914 31.8931C139.622 31.3425 139.476 30.6972 139.476 29.9573ZM147.315 29.9444C147.315 29.2217 147.461 28.5893 147.754 28.0472C148.046 27.4966 148.446 27.0707 148.954 26.7696C149.47 26.4685 150.042 26.3179 150.67 26.3179C151.29 26.3179 151.827 26.4512 152.283 26.718C152.739 26.9847 153.079 27.3202 153.303 27.7246V26.434H154.49V33.5063H153.303V32.19C153.071 32.603 152.722 32.9471 152.258 33.2224C151.802 33.4891 151.268 33.6225 150.657 33.6225C150.029 33.6225 149.461 33.4676 148.954 33.1579C148.446 32.8482 148.046 32.4137 147.754 31.8544C147.461 31.2952 147.315 30.6585 147.315 29.9444ZM153.303 29.9573C153.303 29.4239 153.195 28.9592 152.98 28.5635C152.765 28.1677 152.473 27.8666 152.103 27.6601C151.741 27.445 151.341 27.3374 150.903 27.3374C150.464 27.3374 150.064 27.4407 149.702 27.6472C149.341 27.8537 149.053 28.1548 148.838 28.5506C148.623 28.9463 148.515 29.4109 148.515 29.9444C148.515 30.4864 148.623 30.9596 148.838 31.364C149.053 31.7598 149.341 32.0652 149.702 32.2803C150.064 32.4868 150.464 32.59 150.903 32.59C151.341 32.59 151.741 32.4868 152.103 32.2803C152.473 32.0652 152.765 31.7598 152.98 31.364C153.195 30.9596 153.303 30.4907 153.303 29.9573ZM157.649 23.9561V33.5063H156.475V23.9561H157.649ZM159.212 29.9444C159.212 29.2217 159.358 28.5893 159.651 28.0472C159.943 27.4966 160.344 27.0707 160.851 26.7696C161.367 26.4685 161.94 26.3179 162.568 26.3179C163.187 26.3179 163.725 26.4512 164.181 26.718C164.637 26.9847 164.977 27.3202 165.2 27.7246V26.434H166.388V33.5063H165.2V32.19C164.968 32.603 164.62 32.9471 164.155 33.2224C163.699 33.4891 163.166 33.6225 162.555 33.6225C161.927 33.6225 161.359 33.4676 160.851 33.1579C160.344 32.8482 159.943 32.4137 159.651 31.8544C159.358 31.2952 159.212 30.6585 159.212 29.9444ZM165.2 29.9573C165.2 29.4239 165.093 28.9592 164.878 28.5635C164.663 28.1677 164.37 27.8666 164 27.6601C163.639 27.445 163.239 27.3374 162.8 27.3374C162.361 27.3374 161.961 27.4407 161.6 27.6472C161.238 27.8537 160.95 28.1548 160.735 28.5506C160.52 28.9463 160.412 29.4109 160.412 29.9444C160.412 30.4864 160.52 30.9596 160.735 31.364C160.95 31.7598 161.238 32.0652 161.6 32.2803C161.961 32.4868 162.361 32.59 162.8 32.59C163.239 32.59 163.639 32.4868 164 32.2803C164.37 32.0652 164.663 31.7598 164.878 31.364C165.093 30.9596 165.2 30.4907 165.2 29.9573ZM169.805 27.402V31.5705C169.805 31.9146 169.878 32.1599 170.024 32.3061C170.171 32.4438 170.424 32.5126 170.786 32.5126H171.65V33.5063H170.592C169.938 33.5063 169.448 33.3558 169.121 33.0546C168.794 32.7535 168.63 32.2588 168.63 31.5705V27.402H167.714V26.434H168.63V24.6531H169.805V26.434H171.65V27.402H169.805ZM173.68 25.2854C173.456 25.2854 173.267 25.208 173.112 25.0531C172.957 24.8983 172.88 24.709 172.88 24.4853C172.88 24.2616 172.957 24.0723 173.112 23.9174C173.267 23.7626 173.456 23.6851 173.68 23.6851C173.895 23.6851 174.076 23.7626 174.222 23.9174C174.377 24.0723 174.454 24.2616 174.454 24.4853C174.454 24.709 174.377 24.8983 174.222 25.0531C174.076 25.208 173.895 25.2854 173.68 25.2854ZM174.248 26.434V33.5063H173.073V26.434H174.248ZM179.334 33.6225C178.671 33.6225 178.069 33.4719 177.527 33.1708C176.994 32.8697 176.572 32.4438 176.262 31.8931C175.961 31.3339 175.811 30.6886 175.811 29.9573C175.811 29.2346 175.965 28.5979 176.275 28.0472C176.594 27.488 177.024 27.0621 177.566 26.7696C178.108 26.4685 178.714 26.3179 179.385 26.3179C180.057 26.3179 180.663 26.4685 181.205 26.7696C181.747 27.0621 182.173 27.4837 182.483 28.0343C182.801 28.585 182.96 29.226 182.96 29.9573C182.96 30.6886 182.797 31.3339 182.47 31.8931C182.152 32.4438 181.717 32.8697 181.166 33.1708C180.616 33.4719 180.005 33.6225 179.334 33.6225ZM179.334 32.59C179.755 32.59 180.151 32.4911 180.521 32.2932C180.891 32.0953 181.188 31.7985 181.412 31.4027C181.644 31.0069 181.76 30.5251 181.76 29.9573C181.76 29.3894 181.648 28.9076 181.425 28.5119C181.201 28.1161 180.908 27.8235 180.547 27.6343C180.186 27.4364 179.794 27.3374 179.373 27.3374C178.942 27.3374 178.547 27.4364 178.185 27.6343C177.832 27.8235 177.549 28.1161 177.333 28.5119C177.118 28.9076 177.011 29.3894 177.011 29.9573C177.011 30.5337 177.114 31.0199 177.321 31.4156C177.536 31.8114 177.82 32.1082 178.172 32.3061C178.525 32.4954 178.912 32.59 179.334 32.59ZM187.95 26.305C188.811 26.305 189.508 26.5674 190.041 27.0922C190.574 27.6085 190.841 28.357 190.841 29.3378V33.5063H189.68V29.5056C189.68 28.8001 189.503 28.2623 189.15 27.8924C188.798 27.5138 188.316 27.3245 187.705 27.3245C187.086 27.3245 186.591 27.5181 186.221 27.9053C185.86 28.2925 185.679 28.856 185.679 29.5959V33.5063H184.504V26.434H185.679V27.4407C185.911 27.0793 186.225 26.7997 186.621 26.6018C187.025 26.4039 187.468 26.305 187.95 26.305Z" fill="#5038BC"/>
<defs>
<radialGradient id="paint0_radial_2109_1934" cx="0" cy="0" r="1" gradientUnits="userSpaceOnUse" gradientTransform="translate(5.39607 6.20563) rotate(90) scale(3.94001 6.88094)">
<stop/>
<stop offset="0.917127" stop-opacity="0"/>
</radialGradient>
<radialGradient id="paint1_radial_2109_1934" cx="0" cy="0" r="1" gradientUnits="userSpaceOnUse" gradientTransform="translate(9.04397 21.4782) rotate(90) scale(4.25701 6.41833)">
<stop/>
<stop offset="0.917127" stop-opacity="0"/>
</radialGradient>
<radialGradient id="paint2_radial_2109_1934" cx="0" cy="0" r="1" gradientUnits="userSpaceOnUse" gradientTransform="translate(20.9081 15.8672) rotate(90) scale(3.96676 6.12659)">
<stop/>
<stop offset="0.917127" stop-opacity="0"/>
</radialGradient>
<radialGradient id="paint3_radial_2109_1934" cx="0" cy="0" r="1" gradientUnits="userSpaceOnUse" gradientTransform="translate(11.1644 3.97881) rotate(90) scale(3.97881 11.1644)">
<stop/>
<stop offset="0.917127" stop-opacity="0"/>
</radialGradient>
</defs>
</svg>
